<svg id="Layer_1" enable-background="new 0 0 100 100" viewBox="0 0 100 100" xmlns="http://www.w3.org/2000/svg"><g><path d="m49.1914902 36.4574471c-7.0744667 0-12.9361687 6.0638275-12.9361687 13.5425529s5.861702 13.5425568 12.9361687 13.5425568 12.9361725-6.0638314 12.9361725-13.5425568-5.861702-13.5425529-12.9361725-13.5425529z"/><path d="m96.8936234 47.9787254c-12.3297959-20.0106392-29.106392-30.9255352-46.8936234-30.9255352-17.7872353 0-34.5638275 10.914896-46.8936157 30.9255352-.8085108 1.2127647-.8085108 2.8297844 0 4.2446823 12.3297863 19.8085137 29.1063804 30.7234002 46.8936157 30.7234002s34.5638275-10.9148941 46.8936234-30.7234039c.8085021-1.4148942.8085021-3.0319138 0-4.2446786zm-47.7021332 23.6489373c-11.5212746 0-20.819149-9.7021255-20.819149-21.6276627s9.2978706-21.6276588 20.819149-21.6276588 20.8191528 9.7021293 20.8191528 21.6276588-9.2978783 21.6276627-20.8191528 21.6276627z"/></g></svg>