<svg fill="none" height="14" viewBox="0 0 14 14" width="14" xmlns="http://www.w3.org/2000/svg" xmlns:xlink="http://www.w3.org/1999/xlink"><clipPath id="clip0_2_673"><path d="m0 0h14v14h-14z"/></clipPath><g clip-path="url(#clip0_2_673)"><path clip-rule="evenodd" d="m1.866 5.02c.08341.21071.21391.39955.38152.55207.1676.15252.36787.2647.58548.32793l4.786 1.1-4.741 1.039c-.22263.06093-.42805.17277-.60004.32671-.17198.15394-.30583.34575-.39096.56029l-1.137999 3.974c-.062264.1542-.074943.3239-.036271.4856.038671.1618.126769.3074.252046.4167.125274.1094.281504.1769.446964.1934.16546.0164.33193-.0191.47626-.1017l11.012-6.194c.125-.06918.2293-.17059.3018-.2937.0726-.1231.1109-.26339.1109-.4063 0-.1429-.0383-.2832-.1109-.4063-.0725-.1231-.1768-.22451-.3018-.2937l-11.012-6.193996c-.14433-.0825572-.3108-.1180908-.47626-.10166085-.16546.01643005-.32169.08400715-.446964.19333585-.125277.109328-.213375.254975-.252046.416689-.038672.161714-.025993.33146.036271.485632z" fill="#F5F5F5" fill-rule="evenodd"/></g></svg>